<svg width="20" height="20" viewBox="0 0 20 20" fill="currentColor" xmlns="http://www.w3.org/2000/svg"><path fill-rule="evenodd" clip-rule="evenodd" d="M10.8545 1.20252C10.7543 1.19298 10.6401 1.18551 10.5181 1.18012L10.5169 1.18007C10.3835 1.17419 10.2408 1.17079 10.0973 1.16988C10.0637 1.16967 10.0301 1.16959 9.99653 1.16965C9.72492 1.17014 9.45724 1.17955 9.25015 1.19792C4.40744 1.59299 0.853724 5.87293 1.281 10.69C1.70758 15.4992 5.94895 19.0603 10.7621 18.6333C13.1543 18.4211 15.2759 17.2549 16.7321 15.486C16.7531 15.4605 16.7739 15.4349 16.7946 15.4092C16.8505 15.3396 16.9055 15.2692 16.9594 15.1978C16.988 15.1599 17.0164 15.1216 17.0445 15.0832C17.1107 14.9926 17.1756 14.9 17.2384 14.8067C17.4327 14.4769 17.1597 14.1404 16.8678 14.1662C16.842 14.1685 16.8155 14.1733 16.7888 14.1809C16.6729 14.2138 16.557 14.2436 16.4412 14.2702C16.4138 14.2765 16.3864 14.2827 16.359 14.2886C16.2684 14.3083 16.1779 14.3261 16.0876 14.342C16.0686 14.3453 16.0497 14.3486 16.0308 14.3517C15.8545 14.3813 15.6786 14.4037 15.5033 14.4193C11.8142 14.7465 8.46284 12.0186 8.12337 8.19147C7.92844 5.99379 8.79793 3.86086 10.4342 2.42763C10.4505 2.41332 10.4669 2.39908 10.4834 2.38491C10.5745 2.30664 10.6679 2.23051 10.7636 2.15664C10.8565 2.08493 10.952 2.01497 11.0492 1.94761C11.362 1.73115 11.2349 1.23858 10.8545 1.20252Z"></path></svg>